<?xml version="1.0" encoding="UTF-8" standalone="no"?>
<!DOCTYPE svg PUBLIC "-//W3C//DTD SVG 1.1//EN" "http://www.w3.org/Graphics/SVG/1.1/DTD/svg11.dtd">
<svg width="100%" height="100%" viewBox="0 0 973 225" version="1.1" xmlns="http://www.w3.org/2000/svg" xmlns:xlink="http://www.w3.org/1999/xlink" xml:space="preserve" xmlns:serif="http://www.serif.com/" style="fill-rule:evenodd;clip-rule:evenodd;stroke-linejoin:round;stroke-miterlimit:2;">
    <g transform="matrix(1,0,0,1,-4950.459544,-517.162763)">
        <g transform="matrix(1,0,0,1,1132,0)">
            <g transform="matrix(2.753906,0,0,2.753906,2893.209501,-438.000506)">
                <path d="M671.478,346.911C671.806,346.955 681.573,347.35 687.1,357.711C689.305,361.844 688.883,362.1 688.935,394.492C688.963,412.075 689.32,414.411 685.8,419.686C679.124,429.689 669.776,428.35 661.501,428.348C536.277,428.32 536.254,428.573 533.582,428.069C527.732,426.965 518.636,420.957 518.258,409.509C518.251,409.281 518.104,367.132 518.359,364.488C518.482,363.221 519.504,352.056 531.62,347.839C535.812,346.38 536.153,346.987 563.505,346.861C569.231,346.835 614.101,346.859 618.501,346.862C638.599,346.873 667.156,346.834 671.478,346.911ZM684.96,402.5C685.075,396.997 685.008,366.771 684.952,365.477C684.774,361.368 681.987,356.347 679.501,354.498C674.728,350.949 674.347,351.16 658.499,351.154C648.739,351.15 540.615,351.11 536.493,351.232C526.24,351.537 522.422,360.99 522.153,365.475C522.062,366.994 522.096,404.867 522.106,407.505C522.109,408.321 522.129,413.507 524.692,417.376C530.009,425.401 537.352,424.233 543.501,424.235C665.857,424.281 665.857,424.328 669.49,424.23C670.811,424.195 680.158,423.944 683.514,415.506C684.306,413.513 685.255,412.018 684.96,402.5Z" style="fill:rgb(100,167,86);"/>
            </g>
        </g>
        <g transform="matrix(1,0,0,1,1132,0)">
            <g transform="matrix(2.753906,0,0,2.753906,2893.209501,-438.000506)">
                <path d="M481.547,406.061C483.084,406.105 485.694,406.531 490.512,404.529C493.788,403.168 494.374,401.208 496.579,403.417C501.289,408.136 502.365,409.1 500.702,410.691C493.176,417.897 472.268,420.484 461.691,407.349C455.705,399.915 454.396,383.42 466.746,374.862C478.733,366.556 494.301,370.458 501.095,379.801C501.946,380.971 504.647,385.907 504.931,390.472C504.956,390.868 505.205,394.861 505.044,395.432C504.585,397.062 504.217,396.94 502.521,396.976C499.251,397.045 485.115,396.872 476.501,397.063C474.976,397.097 472.01,396.787 471.411,397.403C470.02,398.832 473.739,403.427 476.472,404.559C479.593,405.85 480.209,405.805 481.547,406.061ZM478.501,389.23C491.082,389.252 491.368,389.337 491.648,388.599C492.338,386.779 490.336,384.458 489.529,383.474C485.7,378.81 474.425,378.919 471.406,386.462C471.328,386.658 470.568,388.556 471.697,389.083C472.139,389.289 474.297,389.237 478.501,389.23Z" style="fill:rgb(35,35,35);"/>
            </g>
        </g>
        <g transform="matrix(1,0,0,1,1132,0)">
            <g transform="matrix(2.753906,0,0,2.753906,2893.209501,-438.000506)">
                <path d="M350.08,362.496C350.055,403.278 350.139,403.275 350.274,403.615C350.789,404.92 351.332,404.503 372.499,404.58C376.582,404.595 378.114,404.426 378.85,405.108C379.345,405.566 379.719,405.913 379.539,413.501C379.471,416.356 378.363,415.87 375.498,415.875C372.536,415.881 341.333,415.943 338.481,415.873C335.959,415.81 336.125,415.013 335.998,412.502C335.926,411.063 336.063,411.077 336.065,394.5C336.071,359.549 335.847,359.484 336.314,358.396C336.668,357.571 336.883,357.265 347.5,357.49C347.693,357.494 349.415,357.531 349.762,358.338C350.221,359.403 349.992,359.449 350.08,362.496Z" style="fill:rgb(36,36,35);"/>
            </g>
        </g>
        <g transform="matrix(1,0,0,1,1132,0)">
            <g transform="matrix(2.753906,0,0,2.753906,2893.209501,-438.000506)">
                <path d="M445.502,370.947C449.019,371.023 448.997,371.103 452.505,371.005C455.004,370.936 456.193,371.086 455.243,373.408C454.946,374.135 454.932,374.122 451.386,382.446C448.964,388.128 448.98,388.127 448.764,388.618C445.938,395.043 446.119,395.11 445.854,395.659C445.344,396.714 441.309,406.751 440.88,407.668C439.382,410.869 438.271,413.95 438.11,414.305C437.235,416.237 435.066,415.874 429.5,415.872C424.774,415.869 424.029,416.384 422.721,413.409C420.954,409.39 420.449,408.065 420.269,407.593C420.267,407.587 410.093,383.661 409.651,382.443C408.864,380.273 408.236,379.304 407.853,378.361C405.657,372.953 405.474,373.02 405.403,372.518C405.215,371.173 406.405,370.941 406.56,370.911C407.263,370.774 407.267,370.96 415.502,371.013C419.696,371.04 419.146,372.571 421.247,377.607C424.277,384.87 424.186,384.894 424.453,385.523C426.722,390.854 426.602,390.899 426.814,391.355C429.269,396.623 429.698,398.902 429.929,399.207C430.083,399.411 431.144,399.598 431.437,399.422C431.651,399.294 434.929,390.55 437.478,384.49C442.125,373.446 442.022,373.421 442.454,372.475C443.004,371.271 444.34,371.012 444.542,370.973C444.857,370.912 445.188,371.008 445.502,370.947Z" style="fill:rgb(35,35,35);"/>
            </g>
        </g>
        <g transform="matrix(1,0,0,1,1132,0)">
            <g transform="matrix(2.753906,0,0,2.753906,2893.209501,-438.000506)">
                <path d="M606.501,415.916C605.181,415.893 595.154,416.564 586.857,410.062C585.129,408.707 586.778,406.227 587.59,404.557C588.877,401.909 591.686,405.747 594.693,407.103C597.133,408.203 601.724,410.374 609.52,409.754C613.164,409.464 614.861,408.449 616.516,407.525C621.34,404.831 622.045,396.78 615.309,393.934C608.771,391.173 608.476,392.103 598.414,388.752C590.33,386.06 586.06,381.947 587.165,372.45C588.413,361.731 604.333,355.465 620.411,361.736C623.458,362.925 625.802,363.578 624.683,366.569C623.568,369.552 623.041,370.475 620.284,368.899C619.14,368.246 614.232,366.024 609.483,365.785C592.446,364.928 592.106,377.288 597.492,380.513C601.697,383.031 601.993,382.54 609.41,384.802C611.95,385.577 622.12,387.305 625.542,392.469C630.404,399.804 626.819,407.343 624.187,410.201C622.367,412.178 619.933,413.339 619.519,413.536C614.666,415.851 610.715,415.845 606.501,415.916Z" style="fill:rgb(35,36,35);"/>
            </g>
        </g>
        <g transform="matrix(1,0,0,1,1132,0)">
            <g transform="matrix(2.753906,0,0,2.753906,2893.209501,-438.000506)">
                <path d="M655.501,415.923C649.645,415.842 644.756,415.846 637.462,411.557C634.57,409.856 634.514,408.841 634.495,408.5C634.48,408.229 635.592,403.507 637.487,403.629C639.383,403.751 644.101,410.582 657.519,409.796C670.19,409.054 673.021,397.281 662.539,393.398C651.171,389.186 635.521,389.101 635.412,375.501C635.283,359.501 655.339,357.062 666.376,360.85C673.375,363.252 673.578,364.245 673.424,365.486C673.365,365.962 671.99,369.179 671.476,369.466C669.74,370.438 669.894,368.652 662.494,366.52C657.688,365.136 643.404,364.578 642.918,374.506C642.721,378.52 645.889,380.409 646.376,380.7C649.895,382.798 650.056,382.422 657.45,384.655C663.792,386.569 675.382,387.588 676.476,399.502C676.66,401.511 676.015,406.242 673.368,409.39C667.586,416.264 658.054,415.862 655.501,415.923Z" style="fill:rgb(36,36,36);"/>
            </g>
        </g>
        <g transform="matrix(1,0,0,1,1132,0)">
            <g transform="matrix(2.753906,0,0,2.753906,2893.209501,-438.000506)">
                <path d="M560.509,415.92C557.164,415.904 546.102,416.779 537.332,406.645C532.305,400.837 531.354,395.639 531.158,394.572C530.198,389.325 529.544,387.013 531.758,378.573C532.773,374.706 535.956,369.391 540.589,365.614C543.943,362.879 547.748,361.54 548.423,361.303C549.367,360.971 553.703,358.933 561.506,359.392C565.038,359.6 567.322,359.94 572.598,362.282C573.892,362.856 579.175,365.879 579.347,367.526C579.479,368.797 578.02,369.722 576.809,370.853C574.482,373.027 574.235,371.152 571.517,369.475C568.78,367.786 568.808,367.733 565.458,366.642C563.878,366.127 552.912,363.611 544.588,371.59C539.857,376.125 539.349,379.31 538.59,381.531C537.344,385.179 537.93,391.278 538.268,392.561C539.385,396.79 542.053,404.719 552.467,408.582C556.44,410.055 565.258,410.981 572.393,405.362C574.784,403.478 575.271,402.423 577.446,404.556C579.591,406.659 580.545,407.268 578.338,409.316C576.786,410.756 572.203,414.108 567.42,415.139C563.391,416.007 561.075,415.904 560.509,415.92Z" style="fill:rgb(35,35,35);"/>
            </g>
        </g>
        <g transform="matrix(1,0,0,1,1132,0)">
            <g transform="matrix(2.753906,0,0,2.753906,2893.209501,-438.000506)">
                <path d="M389.497,370.927C397.709,370.938 398.573,370.773 399.322,371.637C399.826,372.217 399.717,372.338 399.73,397.5C399.738,414.674 399.735,414.764 399.273,415.295C398.727,415.921 398.113,415.918 390.501,415.885C390.253,415.884 387.85,415.873 387.408,415.713C386.112,415.245 386.314,414.75 386.33,400.502C386.357,376.101 386.147,372.385 386.694,371.644C386.94,371.311 387.273,371.19 387.333,371.168C387.496,371.108 387.493,371.15 389.497,370.927Z" style="fill:rgb(35,35,35);"/>
            </g>
        </g>
        <g transform="matrix(1,0,0,1,1132,0)">
            <g transform="matrix(2.753906,0,0,2.753906,2893.209501,-438.000506)">
                <path d="M401.088,358.479C401.054,358.634 401.121,359.319 400.631,360.555C397.859,367.544 385.63,366.69 384.922,358.475C384.715,356.077 386.161,351.55 391.454,351.097C393.863,350.89 397.901,350.631 400.228,354.658C401.227,356.387 400.905,356.491 401.088,358.479Z" style="fill:rgb(36,36,36);"/>
            </g>
        </g>
    </g>
</svg>
